<svg width="720" height="220" viewBox="0 0 720 220" fill="none" xmlns="http://www.w3.org/2000/svg" role="img" aria-labelledby="title desc">
  <title id="title">LanScope logo</title>
  <desc id="desc">A radar scope icon connected to network nodes beside the LanScope wordmark.</desc>
  <rect width="720" height="220" rx="28" fill="#0B1020"/>
  <g transform="translate(48 30)">
    <circle cx="80" cy="80" r="70" fill="#101A33" stroke="#2DD4BF" stroke-width="6"/>
    <circle cx="80" cy="80" r="46" stroke="#38BDF8" stroke-width="3" opacity="0.8"/>
    <circle cx="80" cy="80" r="22" stroke="#38BDF8" stroke-width="3" opacity="0.55"/>
    <path d="M80 80L132 42" stroke="#A7F3D0" stroke-width="6" stroke-linecap="round"/>
    <path d="M80 18V32M80 128V142M18 80H32M128 80H142" stroke="#64748B" stroke-width="4" stroke-linecap="round"/>
    <circle cx="80" cy="80" r="8" fill="#F8FAFC"/>
    <circle cx="132" cy="42" r="10" fill="#2DD4BF"/>
    <circle cx="34" cy="120" r="9" fill="#38BDF8"/>
    <circle cx="128" cy="124" r="9" fill="#38BDF8"/>
    <path d="M34 120C46 106 61 95 80 80C96 96 111 111 128 124" stroke="#38BDF8" stroke-width="4" stroke-linecap="round" stroke-linejoin="round" opacity="0.8"/>
  </g>
  <g transform="translate(230 58)">
    <text x="0" y="62" fill="#F8FAFC" font-family="Segoe UI, Arial, sans-serif" font-size="58" font-weight="700" letter-spacing="0">LanScope</text>
    <text x="2" y="104" fill="#94A3B8" font-family="Segoe UI, Arial, sans-serif" font-size="22" font-weight="500" letter-spacing="0">Internal Asset Discovery Scanner</text>
    <g transform="translate(2 126)">
      <rect x="0" y="0" width="104" height="30" rx="15" fill="#123B3A" stroke="#2DD4BF" stroke-width="1"/>
      <text x="18" y="21" fill="#A7F3D0" font-family="Segoe UI, Arial, sans-serif" font-size="14" font-weight="600">TCP Scan</text>
      <rect x="118" y="0" width="96" height="30" rx="15" fill="#102A43" stroke="#38BDF8" stroke-width="1"/>
      <text x="137" y="21" fill="#BAE6FD" font-family="Segoe UI, Arial, sans-serif" font-size="14" font-weight="600">Web UI</text>
      <rect x="228" y="0" width="122" height="30" rx="15" fill="#172033" stroke="#64748B" stroke-width="1"/>
      <text x="246" y="21" fill="#CBD5E1" font-family="Segoe UI, Arial, sans-serif" font-size="14" font-weight="600">LAN Discovery</text>
    </g>
  </g>
</svg>
